<svg aria-hidden="true" xmlns="http://www.w3.org/2000/svg" xmlns:xlink="http://www.w3.org/1999/xlink"><symbol viewBox="0 0 8 8" id="about-star" xmlns="http://www.w3.org/2000/svg">
<path d="M2.28167 7.01367C2.11796 7.09764 1.93221 6.95048 1.96529 6.7626L2.31729 4.75657L0.823166 3.33327C0.683634 3.2001 0.756157 2.95666 0.943188 2.93037L3.02046 2.63519L3.94671 0.800077C4.03026 0.634675 4.25631 0.634675 4.33986 0.800077L5.26611 2.63519L7.34339 2.93037C7.53042 2.95666 7.60294 3.2001 7.46299 3.33327L5.96928 4.75657L6.32129 6.7626C6.35437 6.95048 6.16861 7.09764 6.00491 7.01367L4.14265 6.05688L2.28125 7.01367H2.28167Z"/>
</symbol><symbol viewBox="0 0 14 29" id="about-triangle" xmlns="http://www.w3.org/2000/svg">
<path d="M-3.43323e-05 0V29L13.8749 14.5094L-3.43323e-05 0Z"/>
</symbol></svg>