<svg aria-hidden="true" xmlns="http://www.w3.org/2000/svg" xmlns:xlink="http://www.w3.org/1999/xlink"><symbol viewBox="0 0 8 8" id="about-star" xmlns="http://www.w3.org/2000/svg">
<path d="M2.28167 7.01367C2.11796 7.09764 1.93221 6.95048 1.96529 6.7626L2.31729 4.75657L0.823166 3.33327C0.683634 3.2001 0.756157 2.95666 0.943188 2.93037L3.02046 2.63519L3.94671 0.800077C4.03026 0.634675 4.25631 0.634675 4.33986 0.800077L5.26611 2.63519L7.34339 2.93037C7.53042 2.95666 7.60294 3.2001 7.46299 3.33327L5.96928 4.75657L6.32129 6.7626C6.35437 6.95048 6.16861 7.09764 6.00491 7.01367L4.14265 6.05688L2.28125 7.01367H2.28167Z"/>
</symbol><symbol viewBox="0 0 14 29" id="about-triangle" xmlns="http://www.w3.org/2000/svg">
<path d="M-3.43323e-05 0V29L13.8749 14.5094L-3.43323e-05 0Z"/>
</symbol><symbol viewBox="0 0 12 20" id="footer-icon-facebook" xmlns="http://www.w3.org/2000/svg">
<path d="M10.6525 11.256L11.2072 7.63887H7.73568V5.28314C7.71154 5.01301 7.74841 4.74091 7.84359 4.48695C7.93877 4.23299 8.08982 4.00367 8.28556 3.81595C8.4813 3.62823 8.71673 3.4869 8.97445 3.40242C9.23216 3.31794 9.50557 3.29247 9.77446 3.32789H11.3528V0.256885C10.4263 0.107301 9.49005 0.0257038 8.55162 0.0127459C7.90592 -0.0364188 7.25731 0.0570303 6.65175 0.286471C6.04619 0.515912 5.49851 0.875728 5.0475 1.34042C4.5965 1.80512 4.25322 2.36332 4.04198 2.97547C3.83075 3.58762 3.75673 4.23873 3.82518 4.88267V7.63887H0.647095V11.256H3.82518V20H7.73568V11.256H10.6525Z"/>
</symbol><symbol viewBox="0 0 20 20" id="footer-icon-instagram" xmlns="http://www.w3.org/2000/svg">
<path d="M10.0125 4.87657C8.99809 4.87509 8.00607 5.17453 7.16192 5.73701C6.31778 6.29949 5.65944 7.09972 5.27023 8.03646C4.88102 8.9732 4.77841 10.0043 4.9754 10.9994C5.17238 11.9945 5.66011 12.9088 6.37685 13.6266C7.0936 14.3444 8.00717 14.8334 9.00195 15.0319C9.99673 15.2303 11.028 15.1292 11.9653 14.7414C12.9026 14.3535 13.7038 13.6964 14.2675 12.853C14.8313 12.0097 15.1321 11.0181 15.1321 10.0037C15.1331 9.33079 15.0014 8.66424 14.7446 8.04223C14.4877 7.42022 14.1108 6.85494 13.6353 6.37874C13.1598 5.90254 12.5951 5.52476 11.9734 5.267C11.3518 5.00924 10.6854 4.87657 10.0125 4.87657ZM10.0125 13.336C9.35309 13.3375 8.70809 13.1434 8.15911 12.7781C7.61013 12.4128 7.18186 11.8929 6.92849 11.2842C6.67513 10.6754 6.60807 10.0052 6.7358 9.35826C6.86353 8.71137 7.1803 8.11691 7.64603 7.65013C8.11176 7.18335 8.7055 6.86523 9.35211 6.73605C9.99871 6.60686 10.6691 6.67241 11.2784 6.9244C11.8878 7.17639 12.4087 7.6035 12.7751 8.15165C13.1416 8.69981 13.3373 9.34437 13.3373 10.0037C13.3353 10.8856 12.9846 11.7309 12.3617 12.3552C11.7388 12.9795 10.8943 13.3321 10.0125 13.336ZM16.5371 4.65908C16.5371 4.89542 16.467 5.12644 16.3357 5.32295C16.2044 5.51945 16.0178 5.67261 15.7994 5.76305C15.5811 5.85349 15.3408 5.87716 15.109 5.83105C14.8772 5.78494 14.6643 5.67114 14.4972 5.50402C14.3301 5.33691 14.2163 5.12399 14.1702 4.8922C14.1241 4.66041 14.1477 4.42015 14.2382 4.20181C14.3286 3.98346 14.4818 3.79684 14.6783 3.66554C14.8748 3.53424 15.1058 3.46416 15.3421 3.46416C15.4991 3.46383 15.6547 3.49451 15.7998 3.55445C15.9449 3.61438 16.0768 3.70238 16.1878 3.81341C16.2988 3.92443 16.3868 4.05629 16.4468 4.20142C16.5067 4.34654 16.5374 4.50207 16.5371 4.65908ZM19.9319 5.87401C19.9647 4.31954 19.3846 2.81458 18.317 1.68427C17.1845 0.620092 15.681 0.0405804 14.1272 0.0693707C12.4773 -0.0231236 7.52763 -0.0231236 5.87773 0.0693707C4.32297 0.0391236 2.81816 0.618794 1.68549 1.68427C0.619474 2.8156 0.0396628 4.31987 0.0705914 5.87401C-0.0219029 7.52391 -0.0219029 12.4736 0.0705914 14.1235C0.037117 15.6788 0.617241 17.1848 1.68549 18.3157C2.8184 19.3792 4.32161 19.9586 5.87523 19.9306C7.52513 20.0231 12.4748 20.0231 14.1247 19.9306C15.6792 19.9634 17.1841 19.3834 18.3145 18.3157C19.3786 17.1832 19.9581 15.6797 19.9293 14.126C20.0218 12.4761 20.0218 7.5314 19.9293 5.87651L19.9319 5.87401ZM17.7995 15.9084C17.6298 16.3383 17.3736 16.7287 17.0468 17.0555C16.72 17.3824 16.3295 17.6386 15.8996 17.8083C13.9637 18.2023 11.9836 18.3343 10.0125 18.2007C8.03844 18.3297 6.05603 18.1943 4.11784 17.7983C3.68794 17.6286 3.29749 17.3724 2.97067 17.0455C2.64386 16.7187 2.38766 16.3283 2.21796 15.8984C1.81651 13.9609 1.67777 11.9782 1.80548 10.0037C1.67654 8.02972 1.81189 6.04731 2.20796 4.10912C2.37766 3.67922 2.63386 3.28877 2.96067 2.96195C3.28749 2.63514 3.67794 2.37894 4.10784 2.20924C6.04889 1.8094 8.035 1.67319 10.0125 1.80426C11.9865 1.67532 13.9689 1.81067 15.9071 2.20674C16.337 2.37644 16.7275 2.63264 17.0543 2.95945C17.3811 3.28627 17.6373 3.67672 17.807 4.10662C18.2051 6.04453 18.3405 8.02722 18.2095 10.0013C18.3393 11.9798 18.2014 13.9668 17.7995 15.9084Z"/>
</symbol><symbol viewBox="0 0 20 18" id="footer-icon-twitter" xmlns="http://www.w3.org/2000/svg">
<path d="M17.9468 4.92565C17.9597 5.10354 17.9597 5.28142 17.9597 5.4593C17.9703 6.99386 17.6758 8.51523 17.0934 9.93502C16.511 11.3548 15.6523 12.6447 14.5672 13.7299C13.482 14.815 12.1921 15.6737 10.7723 16.2561C9.35254 16.8385 7.83118 17.1329 6.29661 17.1224C4.06378 17.1269 1.87721 16.4861 0 15.2771C0.328762 15.3136 0.659374 15.3307 0.990142 15.3286C2.83537 15.3335 4.62844 14.7166 6.08015 13.5776C5.22492 13.5626 4.39572 13.2808 3.70835 12.7717C3.02098 12.2627 2.50975 11.5516 2.24604 10.7379C2.50195 10.7787 2.76058 10.8002 3.01972 10.8022C3.38132 10.8006 3.74131 10.7538 4.0913 10.6629C3.16423 10.4735 2.33123 9.96918 1.73357 9.23559C1.13592 8.502 0.810413 7.58427 0.812259 6.63804V6.58875C1.3805 6.90607 2.01573 7.08452 2.6661 7.10954C1.79543 6.52935 1.17908 5.63869 0.942882 4.61943C0.706688 3.60017 0.868473 2.52919 1.3952 1.62518C2.4252 2.89194 3.70992 3.92811 5.16606 4.66651C6.6222 5.40492 8.21726 5.82908 9.84784 5.91151C9.78234 5.60286 9.74859 5.28832 9.74711 4.9728C9.74877 4.1508 9.99723 3.34823 10.4603 2.66906C10.9234 1.9899 11.5797 1.46544 12.3443 1.16362C13.1089 0.861799 13.9465 0.796529 14.7486 0.976264C15.5508 1.156 16.2804 1.57246 16.8431 2.17169C17.7612 1.99483 18.6415 1.6598 19.4449 1.18155C19.1391 2.12879 18.4982 2.93195 17.6425 3.44044C18.456 3.34479 19.2506 3.12808 20 2.79749C19.4404 3.61746 18.7462 4.33697 17.9468 4.92565Z"/>
</symbol><symbol viewBox="0 0 14 10" id="plans_check" xmlns="http://www.w3.org/2000/svg">
<path fill-rule="evenodd" clip-rule="evenodd" d="M13.3492 0.795551C13.4031 0.849322 13.4459 0.913201 13.475 0.983527C13.5042 1.05385 13.5192 1.12925 13.5192 1.20539C13.5192 1.28153 13.5042 1.35692 13.475 1.42725C13.4459 1.49757 13.4031 1.56145 13.3492 1.61522L5.24509 9.71931C5.19132 9.77322 5.12744 9.81599 5.05711 9.84517C4.98679 9.87435 4.91139 9.88937 4.83525 9.88937C4.75911 9.88937 4.68372 9.87435 4.61339 9.84517C4.54307 9.81599 4.47919 9.77322 4.42542 9.71931L0.373373 5.66727C0.264677 5.55857 0.203613 5.41115 0.203613 5.25743C0.203613 5.10371 0.264677 4.95629 0.373373 4.84759C0.482068 4.7389 0.62949 4.67784 0.783208 4.67784C0.936926 4.67784 1.08435 4.7389 1.19304 4.84759L4.83525 8.49096L12.5295 0.795551C12.5833 0.741644 12.6472 0.698874 12.7175 0.669692C12.7878 0.64051 12.8632 0.625488 12.9393 0.625488C13.0155 0.625488 13.0909 0.64051 13.1612 0.669692C13.2315 0.698874 13.2954 0.741644 13.3492 0.795551Z"/>
</symbol></svg>